<?xml version="1.0" encoding="UTF-8" standalone="no"?>
<!DOCTYPE svg PUBLIC "-//W3C//DTD SVG 1.1//EN" "http://www.w3.org/Graphics/SVG/1.1/DTD/svg11.dtd">
<svg width="100%" height="100%" viewBox="0 0 800 600" version="1.1" xmlns="http://www.w3.org/2000/svg" xmlns:xlink="http://www.w3.org/1999/xlink" xml:space="preserve" xmlns:serif="http://www.serif.com/" style="fill-rule:evenodd;clip-rule:evenodd;stroke-linejoin:round;stroke-miterlimit:2;">
    <g transform="matrix(2.50107,0,0,1.97132,-29.3064,-152.565)">
        <rect x="9.188" y="72.458" width="324.683" height="318.956" style="fill:rgb(99,146,215);"/>
    </g>
    <g id="Layer-1" serif:id="Layer 1" transform="matrix(4.09355,0,0,4.09355,-1360.47,-2178.5)">
        <g id="g4312" transform="matrix(1.05399,0,0,1,-28.0029,294.399)">
            <g id="g3263" transform="matrix(0.580695,0,0,0.737828,250.941,88.7512)">
                <g id="rect3082" transform="matrix(0.831693,-0.555235,0.555235,0.831693,0,0)">
                    <rect x="24.936" y="389.884" width="51.013" height="5.051" style="fill:white;"/>
                </g>
                <rect id="rect3102" x="265.127" y="298.365" width="12.356" height="11.494" style="fill:white;"/>
                <rect id="rect3102-2" x="280.699" y="298.678" width="12.356" height="11.494" style="fill:white;"/>
                <rect id="rect3102-0" x="264.855" y="311.563" width="12.356" height="11.494" style="fill:white;"/>
                <rect id="rect3102-2-8" x="280.11" y="311.876" width="12.356" height="11.494" style="fill:white;"/>
                <g id="rect3082-0" transform="matrix(-0.831693,-0.555235,-0.555235,0.831693,0,0)">
                    <rect x="-440.71" y="79.045" width="51.013" height="5.051" style="fill:white;"/>
                </g>
            </g>
            <g id="g4307">
                <rect id="rect4267" x="390.427" y="308.555" width="5.357" height="7.679" style="fill:white;"/>
                <rect id="rect4267-2" x="390.427" y="300.073" width="5.357" height="7.679" style="fill:white;"/>
                <path id="path4305" d="M391.855,298.019C386.337,293.888 394.174,291.95 396.319,289.805C398.517,287.608 397.815,283.748 401.319,281.412C403.031,280.271 406.388,283.129 406.855,282.662C408.309,281.208 413.041,279.741 414.355,281.055C415.874,282.574 415.932,287.514 414.534,288.912C412.89,290.556 408.609,286.476 407.569,288.555C405.214,293.265 406.355,295.715 400.605,292.841C399.44,292.258 396.062,298.019 391.855,298.019Z" style="fill:white;fill-rule:nonzero;"/>
            </g>
        </g>
        <g id="g43121" serif:id="g4312" transform="matrix(1.05399,0,0,1,16.4787,288.577)">
            <g id="g32631" serif:id="g3263" transform="matrix(0.580695,0,0,0.737828,250.941,88.7512)">
                <g id="rect30821" serif:id="rect3082" transform="matrix(0.831693,-0.555235,0.555235,0.831693,0,0)">
                    <rect x="24.936" y="389.884" width="51.013" height="5.051" style="fill:white;"/>
                </g>
                <rect id="rect31021" serif:id="rect3102" x="265.127" y="298.365" width="12.356" height="11.494" style="fill:white;"/>
                <rect id="rect3102-21" serif:id="rect3102-2" x="280.699" y="298.678" width="12.356" height="11.494" style="fill:white;"/>
                <rect id="rect3102-01" serif:id="rect3102-0" x="264.855" y="311.563" width="12.356" height="11.494" style="fill:white;"/>
                <rect id="rect3102-2-81" serif:id="rect3102-2-8" x="280.11" y="311.876" width="12.356" height="11.494" style="fill:white;"/>
                <g id="rect3082-01" serif:id="rect3082-0" transform="matrix(-0.831693,-0.555235,-0.555235,0.831693,0,0)">
                    <rect x="-440.71" y="79.045" width="51.013" height="5.051" style="fill:white;"/>
                </g>
            </g>
            <g id="g43071" serif:id="g4307">
                <rect id="rect42671" serif:id="rect4267" x="390.427" y="308.555" width="5.357" height="7.679" style="fill:white;"/>
                <rect id="rect4267-21" serif:id="rect4267-2" x="390.427" y="300.073" width="5.357" height="7.679" style="fill:white;"/>
                <path id="path43051" serif:id="path4305" d="M391.855,298.019C386.337,293.888 394.174,291.95 396.319,289.805C398.517,287.608 397.815,283.748 401.319,281.412C403.031,280.271 406.388,283.129 406.855,282.662C408.309,281.208 413.041,279.741 414.355,281.055C415.874,282.574 415.932,287.514 414.534,288.912C412.89,290.556 408.609,286.476 407.569,288.555C405.214,293.265 406.355,295.715 400.605,292.841C399.44,292.258 396.062,298.019 391.855,298.019Z" style="fill:white;fill-rule:nonzero;"/>
            </g>
        </g>
        <g id="g32632" serif:id="g3263" transform="matrix(0.612049,0,0,0.737828,264.04,403.216)">
            <g id="g43122" serif:id="g4312">
                <g id="g32633" serif:id="g3263">
                    <g id="rect30822" serif:id="rect3082" transform="matrix(0.831693,-0.555235,0.555235,0.831693,0,0)">
                        <rect x="24.936" y="389.884" width="51.013" height="5.051" style="fill:white;"/>
                    </g>
                    <rect id="rect31022" serif:id="rect3102" x="265.127" y="298.365" width="12.356" height="11.494" style="fill:white;"/>
                    <rect id="rect3102-22" serif:id="rect3102-2" x="280.699" y="298.678" width="12.356" height="11.494" style="fill:white;"/>
                    <rect id="rect3102-02" serif:id="rect3102-0" x="264.855" y="311.563" width="12.356" height="11.494" style="fill:white;"/>
                    <rect id="rect3102-2-82" serif:id="rect3102-2-8" x="280.11" y="311.876" width="12.356" height="11.494" style="fill:white;"/>
                    <g id="rect3082-02" serif:id="rect3082-0" transform="matrix(-0.831693,-0.555235,-0.555235,0.831693,0,0)">
                        <rect x="-440.71" y="79.045" width="51.013" height="5.051" style="fill:white;"/>
                    </g>
                </g>
            </g>
        </g>
    </g>
</svg>
